<svg width="55" height="55" viewBox="0 0 55 55" fill="none" xmlns="http://www.w3.org/2000/svg">
<g clip-path="url(#clip0_305_16)">
<path d="M47 0H8C3.58172 0 0 3.58172 0 8V47C0 51.4183 3.58172 55 8 55H47C51.4183 55 55 51.4183 55 47V8C55 3.58172 51.4183 0 47 0Z" fill="#1E959B"/>
<path d="M27.5004 9.16699C21.0247 9.16699 18.6498 12.3519 18.6498 14.7072V18.6497H26.8682V19.9141H14.7073C13.3075 19.9141 11.8714 20.4445 10.8327 21.6872C9.79389 22.9298 9.16699 24.8269 9.16699 27.5003C9.16699 30.1736 9.79389 32.0708 10.8327 33.3134C11.8714 34.556 13.3075 35.0865 14.7073 35.0865H18.6498V40.2934C18.6498 42.6486 21.0247 45.8336 27.5004 45.8336C33.976 45.8336 36.3509 42.6486 36.3509 40.2934V36.3509H28.1325V35.0865H40.2934C41.6932 35.0865 43.1293 34.556 44.168 33.3134C45.2068 32.0708 45.8337 30.1736 45.8337 27.5003C45.8337 24.8269 45.2068 22.9298 44.168 21.6872C43.1293 20.4445 41.6932 19.9141 40.2934 19.9141H36.3522V14.7072C36.3518 13.498 35.7597 12.0822 34.3482 10.9981C32.9367 9.91393 30.7355 9.16699 27.5004 9.16699ZM27.5004 10.4313C30.5409 10.4313 32.4488 11.1336 33.5777 12.0007C34.7066 12.8677 35.0875 13.9048 35.0878 14.7072V19.9141H35.0866V24.2813C35.0866 24.8004 34.8997 25.2945 34.5902 25.7087C34.1772 26.2609 33.547 26.6714 32.8554 26.8138C32.6825 26.8494 32.5063 26.8681 32.3282 26.8681H22.6725C20.5576 26.8681 18.6498 28.5632 18.6498 30.7192V33.8221H14.7073C13.6124 33.8221 12.5949 33.4493 11.8032 32.5022C11.0115 31.5551 10.4314 29.9761 10.4314 27.5003C10.4314 25.0245 11.0115 23.4455 11.8032 22.4984C12.5949 21.5513 13.6124 21.1784 14.7073 21.1784H28.1325V17.3853H19.9142V14.7072C19.9142 13.1998 21.4246 10.4313 27.5004 10.4313ZM24.0233 12.9601C23.6042 12.9601 23.2022 13.1266 22.9058 13.423C22.6094 13.7194 22.4429 14.1213 22.4429 14.5405C22.4429 14.9597 22.6094 15.3617 22.9058 15.6581C23.2022 15.9545 23.6042 16.121 24.0233 16.121C24.4425 16.121 24.8445 15.9545 25.1409 15.6581C25.4373 15.3617 25.6038 14.9597 25.6038 14.5405C25.6038 14.1213 25.4373 13.7194 25.1409 13.423C24.8445 13.1266 24.4425 12.9601 24.0233 12.9601ZM36.3522 21.1784H40.2934C41.3883 21.1784 42.4058 21.5513 43.1975 22.4984C43.9893 23.4455 44.5693 25.0245 44.5693 27.5003C44.5693 29.9761 43.9893 31.5551 43.1975 32.5022C42.4058 33.4493 41.3883 33.8221 40.2934 33.8221H26.8682V37.6152H35.0866V40.2934C35.0866 41.8007 33.5761 44.5692 27.5004 44.5692C21.4246 44.5692 19.9142 41.8007 19.9142 40.2934V30.7192C19.9142 30.5462 19.9354 30.3759 19.9747 30.2105C20.2493 29.053 21.4254 28.1325 22.6725 28.1325H32.3282C32.4604 28.1325 32.5919 28.1257 32.722 28.1127C33.5027 28.0351 34.2389 27.7292 34.8421 27.262H34.8433C34.9436 27.1842 35.0398 27.1015 35.1322 27.015H35.1335C35.8751 26.3218 36.3522 25.3594 36.3522 24.2813V21.1784ZM17.1558 22.486C16.9883 22.4886 16.8287 22.5576 16.7121 22.6777C16.5954 22.7979 16.5312 22.9594 16.5334 23.1269V24.3912C16.5323 24.475 16.5477 24.5582 16.579 24.6359C16.6102 24.7136 16.6566 24.7844 16.7154 24.8441C16.7742 24.9037 16.8443 24.9511 16.9216 24.9834C16.9989 25.0158 17.0819 25.0324 17.1656 25.0324C17.2494 25.0324 17.3324 25.0158 17.4096 24.9834C17.4869 24.9511 17.557 24.9037 17.6158 24.8441C17.6747 24.7844 17.721 24.7136 17.7523 24.6359C17.7835 24.5582 17.799 24.475 17.7978 24.3912V23.1269C17.799 23.0423 17.7832 22.9583 17.7513 22.88C17.7194 22.8016 17.6721 22.7305 17.6123 22.6707C17.5524 22.6109 17.4811 22.5638 17.4027 22.5321C17.3243 22.5004 17.2403 22.4847 17.1558 22.486ZM20.0413 22.486C19.8739 22.4886 19.7143 22.5576 19.5976 22.6777C19.481 22.7979 19.4167 22.9594 19.419 23.1269V24.3912C19.4178 24.475 19.4333 24.5582 19.4646 24.6359C19.4958 24.7136 19.5422 24.7844 19.601 24.8441C19.6598 24.9037 19.7299 24.9511 19.8072 24.9834C19.8845 25.0158 19.9674 25.0324 20.0512 25.0324C20.135 25.0324 20.2179 25.0158 20.2952 24.9834C20.3725 24.9511 20.4426 24.9037 20.5014 24.8441C20.5602 24.7844 20.6066 24.7136 20.6379 24.6359C20.6691 24.5582 20.6846 24.475 20.6834 24.3912V23.1269C20.6845 23.0423 20.6687 22.9583 20.6369 22.88C20.605 22.8016 20.5577 22.7305 20.4978 22.6707C20.438 22.6109 20.3667 22.5638 20.2883 22.5321C20.2099 22.5004 20.1259 22.4847 20.0413 22.486ZM22.9281 22.486C22.7607 22.4886 22.6011 22.5576 22.4844 22.6777C22.3678 22.7979 22.3035 22.9594 22.3058 23.1269V24.3912C22.3046 24.475 22.3201 24.5582 22.3514 24.6359C22.3826 24.7136 22.429 24.7844 22.4878 24.8441C22.5466 24.9037 22.6167 24.9511 22.694 24.9834C22.7713 25.0158 22.8542 25.0324 22.938 25.0324C23.0218 25.0324 23.1047 25.0158 23.182 24.9834C23.2593 24.9511 23.3294 24.9037 23.3882 24.8441C23.4471 24.7844 23.4934 24.7136 23.5247 24.6359C23.5559 24.5582 23.5714 24.475 23.5702 24.3912V23.1269C23.5714 23.0423 23.5555 22.9583 23.5237 22.88C23.4918 22.8016 23.4445 22.7305 23.3846 22.6707C23.3248 22.6109 23.2535 22.5638 23.1751 22.5321C23.0967 22.5004 23.0127 22.4847 22.9281 22.486ZM25.8137 22.486C25.6463 22.4886 25.4867 22.5576 25.37 22.6777C25.2533 22.7979 25.1891 22.9594 25.1914 23.1269V24.3912C25.1902 24.475 25.2057 24.5582 25.2369 24.6359C25.2682 24.7136 25.3146 24.7844 25.3734 24.8441C25.4322 24.9037 25.5023 24.9511 25.5796 24.9834C25.6569 25.0158 25.7398 25.0324 25.8236 25.0324C25.9074 25.0324 25.9903 25.0158 26.0676 24.9834C26.1449 24.9511 26.215 24.9037 26.2738 24.8441C26.3326 24.7844 26.379 24.7136 26.4102 24.6359C26.4415 24.5582 26.457 24.475 26.4558 24.3912V23.1269C26.4569 23.0423 26.4411 22.9583 26.4092 22.88C26.3774 22.8016 26.3301 22.7305 26.2702 22.6707C26.2103 22.6109 26.1391 22.5638 26.0607 22.5321C25.9823 22.5004 25.8983 22.4847 25.8137 22.486ZM31.0638 30.0204C30.8964 30.023 30.7368 30.0919 30.6201 30.2121C30.5034 30.3322 30.4392 30.4937 30.4415 30.6612V31.9256C30.4403 32.0093 30.4558 32.0925 30.487 32.1702C30.5183 32.248 30.5646 32.3187 30.6235 32.3784C30.6823 32.4381 30.7524 32.4854 30.8297 32.5178C30.907 32.5501 30.9899 32.5668 31.0737 32.5668C31.1575 32.5668 31.2404 32.5501 31.3177 32.5178C31.395 32.4854 31.4651 32.4381 31.5239 32.3784C31.5827 32.3187 31.6291 32.248 31.6603 32.1702C31.6916 32.0925 31.707 32.0093 31.7059 31.9256V30.6612C31.707 30.5766 31.6912 30.4927 31.6593 30.4143C31.6275 30.336 31.5802 30.2648 31.5203 30.205C31.4604 30.1453 31.3892 30.0982 31.3108 30.0664C31.2324 30.0347 31.1484 30.0191 31.0638 30.0204ZM33.9494 30.0204C33.7819 30.023 33.6224 30.0919 33.5057 30.2121C33.389 30.3322 33.3248 30.4937 33.3271 30.6612V31.9256C33.3259 32.0093 33.3414 32.0925 33.3726 32.1702C33.4038 32.248 33.4502 32.3187 33.509 32.3784C33.5679 32.4381 33.6379 32.4854 33.7152 32.5178C33.7925 32.5501 33.8755 32.5668 33.9593 32.5668C34.043 32.5668 34.126 32.5501 34.2033 32.5178C34.2806 32.4854 34.3506 32.4381 34.4095 32.3784C34.4683 32.3187 34.5147 32.248 34.5459 32.1702C34.5771 32.0925 34.5926 32.0093 34.5914 31.9256V30.6612C34.5926 30.5766 34.5768 30.4927 34.5449 30.4143C34.513 30.336 34.4658 30.2648 34.4059 30.205C34.346 30.1453 34.2748 30.0982 34.1963 30.0664C34.1179 30.0347 34.034 30.0191 33.9494 30.0204ZM36.8362 30.0204C36.6687 30.023 36.5092 30.0919 36.3925 30.2121C36.2758 30.3322 36.2116 30.4937 36.2139 30.6612V31.9256C36.2127 32.0093 36.2282 32.0925 36.2594 32.1702C36.2906 32.248 36.337 32.3187 36.3958 32.3784C36.4547 32.4381 36.5248 32.4854 36.602 32.5178C36.6793 32.5501 36.7623 32.5668 36.8461 32.5668C36.9298 32.5668 37.0128 32.5501 37.0901 32.5178C37.1674 32.4854 37.2375 32.4381 37.2963 32.3784C37.3551 32.3187 37.4015 32.248 37.4327 32.1702C37.464 32.0925 37.4794 32.0093 37.4782 31.9256V30.6612C37.4794 30.5766 37.4636 30.4927 37.4317 30.4143C37.3998 30.336 37.3526 30.2648 37.2927 30.205C37.2328 30.1453 37.1616 30.0982 37.0832 30.0664C37.0047 30.0347 36.9208 30.0191 36.8362 30.0204ZM39.7218 30.0204C39.5543 30.023 39.3947 30.0919 39.2781 30.2121C39.1614 30.3322 39.0972 30.4937 39.0995 30.6612V31.9256C39.0983 32.0093 39.1137 32.0925 39.145 32.1702C39.1762 32.248 39.2226 32.3187 39.2814 32.3784C39.3402 32.4381 39.4103 32.4854 39.4876 32.5178C39.5649 32.5501 39.6479 32.5668 39.7316 32.5668C39.8154 32.5668 39.8984 32.5501 39.9756 32.5178C40.0529 32.4854 40.123 32.4381 40.1818 32.3784C40.2407 32.3187 40.287 32.248 40.3183 32.1702C40.3495 32.0925 40.365 32.0093 40.3638 31.9256V30.6612C40.365 30.5766 40.3492 30.4927 40.3173 30.4143C40.2854 30.336 40.2381 30.2648 40.1783 30.205C40.1184 30.1453 40.0471 30.0982 39.9687 30.0664C39.8903 30.0347 39.8063 30.0191 39.7218 30.0204ZM31.6096 38.8796C31.1904 38.8796 30.7884 39.0461 30.492 39.3425C30.1956 39.6389 30.0291 40.0409 30.0291 40.46C30.0291 40.8792 30.1956 41.2812 30.492 41.5776C30.7884 41.874 31.1904 42.0405 31.6096 42.0405C31.8171 42.0405 32.0226 41.9996 32.2144 41.9202C32.4061 41.8408 32.5803 41.7244 32.7271 41.5776C32.8739 41.4308 32.9903 41.2566 33.0697 41.0649C33.1491 40.8731 33.19 40.6676 33.19 40.46C33.19 40.2525 33.1491 40.047 33.0697 39.8552C32.9903 39.6635 32.8739 39.4893 32.7271 39.3425C32.5803 39.1957 32.4061 39.0793 32.2144 38.9999C32.0226 38.9205 31.8171 38.8796 31.6096 38.8796Z" fill="white"/>
</g>
<defs>
<clipPath id="clip0_305_16">
<rect width="55" height="55" fill="white"/>
</clipPath>
</defs>
</svg>
