<svg width="55" height="55" viewBox="0 0 55 55" fill="none" xmlns="http://www.w3.org/2000/svg">
<g clip-path="url(#clip0_305_22)">
<path d="M47 0H8C3.58172 0 0 3.58172 0 8V47C0 51.4183 3.58172 55 8 55H47C51.4183 55 55 51.4183 55 47V8C55 3.58172 51.4183 0 47 0Z" fill="#1E959B"/>
<path d="M45.8337 27.3303C45.8337 24.9013 42.7918 22.5994 38.1282 21.1719C39.2044 16.4185 38.7261 12.6368 36.6184 11.426C36.1326 11.142 35.5646 11.0075 34.9443 11.0075V12.6741C35.2881 12.6741 35.5646 12.7414 35.7963 12.8685C36.8128 13.4514 37.2537 15.6712 36.9099 18.5262C36.8277 19.2287 36.6932 19.9686 36.5288 20.7235C35.0639 20.3647 33.4645 20.0882 31.7829 19.9088C30.7739 18.5262 29.7276 17.2706 28.6738 16.1719C31.1102 13.9073 33.3972 12.6667 34.9518 12.6667V11C32.8965 11 30.2059 12.4649 27.4854 15.006C24.7649 12.4798 22.0743 11.0299 20.019 11.0299V12.6966C21.5661 12.6966 23.8606 13.9297 26.2971 16.1794C25.2507 17.278 24.2044 18.5262 23.2104 19.9088C21.5213 20.0882 19.9219 20.3647 18.457 20.7309C18.2851 19.9836 18.1581 19.2586 18.0684 18.5635C17.7171 15.7085 18.1506 13.4888 19.1596 12.8984C19.3838 12.7638 19.6752 12.704 20.019 12.704V11.0374C19.3912 11.0374 18.8232 11.1719 18.33 11.4559C16.2298 12.6667 15.759 16.441 16.8427 21.1794C12.1939 22.6144 9.16699 24.9088 9.16699 27.3303C9.16699 29.7593 12.2089 32.0613 16.8726 33.4888C15.7963 38.2422 16.2746 42.0239 18.3823 43.2347C18.8681 43.5187 19.4361 43.6532 20.0639 43.6532C22.1192 43.6532 24.8098 42.1883 27.5303 39.6472C30.2507 42.1734 32.9413 43.6233 34.9966 43.6233C35.6244 43.6233 36.1924 43.4888 36.6857 43.2048C38.7859 41.994 39.2567 38.2197 38.173 33.4813C42.8068 32.0538 45.8337 29.7519 45.8337 27.3303ZM36.1027 22.3453C35.8262 23.3094 35.4824 24.3034 35.0938 25.2975C34.7874 24.6996 34.466 24.1016 34.1147 23.5037C33.7709 22.9058 33.4047 22.3229 33.0385 21.7549C34.0998 21.9118 35.1237 22.1061 36.1027 22.3453ZM32.6797 30.3049C32.0968 31.3139 31.4989 32.2706 30.8785 33.1599C29.7649 33.2571 28.6364 33.3094 27.5004 33.3094C26.3718 33.3094 25.2433 33.2571 24.1371 33.1674C23.5168 32.278 22.9114 31.3289 22.3285 30.3274C21.7604 29.3483 21.2448 28.3543 20.7739 27.3528C21.2373 26.3513 21.7604 25.3498 22.321 24.3707C22.9039 23.3617 23.5019 22.4051 24.1222 21.5157C25.2358 21.4185 26.3643 21.3662 27.5004 21.3662C28.6289 21.3662 29.7575 21.4185 30.8636 21.5082C31.4839 22.3976 32.0893 23.3468 32.6723 24.3483C33.2403 25.3274 33.756 26.3214 34.2268 27.3229C33.756 28.3244 33.2403 29.3259 32.6797 30.3049ZM35.0938 29.3333C35.4974 30.3348 35.8412 31.3363 36.1252 32.3079C35.1461 32.5471 34.1147 32.7489 33.0459 32.9058C33.4122 32.3303 33.7784 31.7399 34.1222 31.1345C34.466 30.5366 34.7874 29.9312 35.0938 29.3333ZM27.5153 37.3079C26.8202 36.5904 26.1252 35.7907 25.4376 34.9163C26.1102 34.9462 26.7978 34.9686 27.4929 34.9686C28.1954 34.9686 28.8905 34.9537 29.5706 34.9163C28.898 35.7907 28.2029 36.5904 27.5153 37.3079ZM21.9548 32.9058C20.8935 32.7489 19.8696 32.5546 18.8905 32.3154C19.167 31.3513 19.5108 30.3573 19.8995 29.3632C20.2059 29.9611 20.5273 30.559 20.8785 31.157C21.2298 31.7549 21.5885 32.3378 21.9548 32.9058ZM27.4779 17.3528C28.173 18.0703 28.8681 18.87 29.5557 19.7444C28.883 19.7145 28.1954 19.6921 27.5004 19.6921C26.7978 19.6921 26.1028 19.707 25.4226 19.7444C26.0953 18.87 26.7903 18.0703 27.4779 17.3528ZM21.9473 21.7549C21.5811 22.3303 21.2149 22.9208 20.8711 23.5262C20.5273 24.1241 20.2059 24.722 19.8995 25.3199C19.4959 24.3184 19.1521 23.3169 18.8681 22.3453C19.8471 22.1136 20.8785 21.9118 21.9473 21.7549ZM15.1835 31.1121C12.5377 29.9836 10.8262 28.5037 10.8262 27.3303C10.8262 26.157 12.5377 24.6697 15.1835 23.5486C15.8262 23.272 16.5288 23.0254 17.2537 22.7937C17.6797 24.2586 18.2403 25.7833 18.9353 27.3453C18.2477 28.8999 17.6947 30.417 17.2761 31.8744C16.5362 31.6428 15.8337 31.3886 15.1835 31.1121ZM19.2044 41.7922C18.188 41.2093 17.747 38.9895 18.0908 36.1345C18.173 35.432 18.3075 34.6921 18.472 33.9372C19.9368 34.296 21.5362 34.5725 23.2178 34.7519C24.2268 36.1345 25.2732 37.3901 26.327 38.4888C23.8905 40.7534 21.6035 41.994 20.0489 41.994C19.7126 41.9865 19.4286 41.9193 19.2044 41.7922ZM36.9323 36.0972C37.2836 38.9522 36.8501 41.1719 35.8412 41.7623C35.6169 41.8969 35.3255 41.9567 34.9817 41.9567C33.4346 41.9567 31.1401 40.7235 28.7036 38.4738C29.75 37.3752 30.7963 36.1271 31.7903 34.7444C33.4794 34.565 35.0788 34.2885 36.5437 33.9223C36.7156 34.6771 36.8501 35.4021 36.9323 36.0972ZM39.8098 31.1121C39.167 31.3886 38.4645 31.6353 37.7395 31.867C37.3135 30.4021 36.753 28.8774 36.0579 27.3154C36.7455 25.7608 37.2986 24.2436 37.7171 22.7862C38.457 23.0179 39.1595 23.272 39.8172 23.5486C42.463 24.6771 44.1745 26.157 44.1745 27.3303C44.167 28.5037 42.4555 29.991 39.8098 31.1121Z" fill="white"/>
<path d="M27.4926 30.7461C29.379 30.7461 30.9082 29.2169 30.9082 27.3305C30.9082 25.4442 29.379 23.915 27.4926 23.915C25.6063 23.915 24.0771 25.4442 24.0771 27.3305C24.0771 29.2169 25.6063 30.7461 27.4926 30.7461Z" fill="white"/>
</g>
<defs>
<clipPath id="clip0_305_22">
<rect width="55" height="55" fill="white"/>
</clipPath>
</defs>
</svg>
