<svg width="47" height="35" viewBox="0 0 47 35" fill="none" xmlns="http://www.w3.org/2000/svg">
<g clip-path="url(#clip0_120_1387)">
<path d="M29.894 17.956L43.1102 26.3111V9.24817L29.894 17.956Z" fill="#1E959B"/>
<path d="M3.90771 9.24817V26.3111L17.1239 17.956L3.90771 9.24817Z" fill="#1E959B"/>
<path d="M40.6598 4.2793H6.35761C5.13498 4.2793 4.16472 5.19075 3.98096 6.36438L23.5087 19.2302L43.0365 6.36438C42.8527 5.19075 41.8824 4.2793 40.6598 4.2793Z" fill="#1E959B"/>
<path d="M27.6499 19.4359L24.183 21.7195C23.9772 21.8542 23.7444 21.9204 23.5092 21.9204C23.274 21.9204 23.0412 21.8542 22.8354 21.7195L19.3684 19.4335L3.98633 29.163C4.17499 30.3269 5.14035 31.231 6.35808 31.231H40.6603C41.878 31.231 42.8434 30.3269 43.032 29.163L27.6499 19.4359Z" fill="#1E959B"/>
</g>
<defs>
<clipPath id="clip0_120_1387">
<rect width="46.2903" height="35" fill="white"/>
</clipPath>
</defs>
</svg>
