<svg width="55" height="55" viewBox="0 0 55 55" fill="none" xmlns="http://www.w3.org/2000/svg">
<g clip-path="url(#clip0_305_2)">
<path d="M47 0H8C3.58172 0 0 3.58172 0 8V47C0 51.4183 3.58172 55 8 55H47C51.4183 55 55 51.4183 55 47V8C55 3.58172 51.4183 0 47 0Z" fill="#1E959B"/>
<path d="M31.9184 20.8895L30.8028 21.4456L30.2527 20.4841L30.8258 20.199V15.1532L27.0016 13.2412L23.1775 15.1532V20.199L23.7506 20.4858L23.2004 21.4456L22.0849 20.8895L18.2607 22.8016V27.8473L22.0849 29.7593L25.909 27.8473V26.417H28.0943V27.8473L31.9184 29.7593L35.7426 27.8473V22.8016L31.9184 20.8895ZM28.7302 20.0252L27.5479 20.6163V17.4674L29.7332 16.3748V19.5237L29.7091 19.5357L29.1148 18.4977L28.1664 19.0408L28.7302 20.0252ZM27.0016 14.4627L29.0579 15.4909L27.0016 16.519L24.9453 15.4909L27.0016 14.4627ZM24.2701 16.3748L26.4553 17.4674V20.6163L25.2731 20.0252L25.8369 19.0419L24.8885 18.4956L24.2941 19.5335L24.2701 19.5237V16.3748ZM21.5385 28.2646L19.3533 27.172V24.0231L21.5385 25.1157V28.2646ZM20.0286 23.1392L22.0849 22.111L24.1412 23.1392L22.0849 24.1673L20.0286 23.1392ZM24.8164 25.3244H23.7238V26.417H24.8164V27.172L22.6312 28.2646V25.1157L24.8164 24.0231V25.3244ZM28.0943 25.3244H25.909V22.8016L24.1794 21.9373L24.7295 20.9758L27.0016 22.111L29.2737 20.9753L29.8239 21.9368L28.0943 22.8016V25.3244ZM31.3721 28.2646L29.1869 27.172V26.417H30.2795V25.3244H29.1869V24.0231L31.3721 25.1157V28.2646ZM29.8621 23.1392L31.9184 22.111L33.9747 23.1392L31.9184 24.1673L29.8621 23.1392ZM34.65 27.172L32.4647 28.2646V25.1157L34.65 24.0231V27.172Z" fill="white"/>
<path d="M21.5379 18.7686H20.4453V19.8612H21.5379V18.7686Z" fill="white"/>
<path d="M27.5487 29.1484H26.4561V30.2411H27.5487V29.1484Z" fill="white"/>
<path d="M33.0115 18.7686H31.9189V19.8612H33.0115V18.7686Z" fill="white"/>
<path d="M12.3139 41.0608C11.9243 41.0548 11.6066 41.0129 11.3608 40.9349C11.1211 40.857 10.9293 40.7491 10.7854 40.6113C10.6476 40.4674 10.5517 40.2966 10.4977 40.0988C10.4498 39.895 10.4258 39.6673 10.4258 39.4155V34.2099L11.7654 33.9941V39.1458C11.7654 39.2657 11.7744 39.3736 11.7924 39.4695C11.8104 39.5654 11.8433 39.6463 11.8913 39.7122C11.9452 39.7781 12.0202 39.8321 12.1161 39.874C12.212 39.916 12.3408 39.943 12.5027 39.955L12.3139 41.0608Z" fill="white"/>
<path d="M17.694 38.5972C17.694 38.9688 17.6401 39.3104 17.5322 39.6221C17.4243 39.9278 17.2685 40.1915 17.0647 40.4133C16.8609 40.6291 16.6152 40.7969 16.3275 40.9168C16.0457 41.0366 15.7281 41.0966 15.3744 41.0966C15.0268 41.0966 14.7091 41.0366 14.4214 40.9168C14.1397 40.7969 13.897 40.6291 13.6932 40.4133C13.4894 40.1915 13.3306 39.9278 13.2167 39.6221C13.1028 39.3104 13.0459 38.9688 13.0459 38.5972C13.0459 38.2256 13.1028 37.8869 13.2167 37.5812C13.3366 37.2755 13.4984 37.0148 13.7022 36.799C13.912 36.5833 14.1577 36.4154 14.4394 36.2956C14.7271 36.1757 15.0388 36.1157 15.3744 36.1157C15.7161 36.1157 16.0278 36.1757 16.3095 36.2956C16.5972 36.4154 16.8429 36.5833 17.0467 36.799C17.2505 37.0148 17.4093 37.2755 17.5232 37.5812C17.6371 37.8869 17.694 38.2256 17.694 38.5972ZM16.3275 38.5972C16.3275 38.1836 16.2435 37.8599 16.0757 37.6262C15.9139 37.3864 15.6801 37.2665 15.3744 37.2665C15.0688 37.2665 14.832 37.3864 14.6642 37.6262C14.4963 37.8599 14.4124 38.1836 14.4124 38.5972C14.4124 39.0107 14.4963 39.3404 14.6642 39.5861C14.832 39.8259 15.0688 39.9458 15.3744 39.9458C15.6801 39.9458 15.9139 39.8259 16.0757 39.5861C16.2435 39.3404 16.3275 39.0107 16.3275 38.5972Z" fill="white"/>
<path d="M18.5068 38.6062C18.5068 38.2645 18.5607 37.9438 18.6686 37.6442C18.7825 37.3385 18.9443 37.0747 19.1541 36.853C19.3639 36.6252 19.6186 36.4454 19.9183 36.3135C20.218 36.1817 20.5597 36.1157 20.9433 36.1157C21.195 36.1157 21.4258 36.1397 21.6355 36.1877C21.8453 36.2296 22.0491 36.2926 22.2469 36.3765L21.9682 37.4464C21.8423 37.3984 21.7045 37.3565 21.5546 37.3205C21.4048 37.2845 21.237 37.2665 21.0511 37.2665C20.6556 37.2665 20.3589 37.3894 20.1611 37.6352C19.9693 37.8809 19.8734 38.2046 19.8734 38.6062C19.8734 39.0317 19.9633 39.3614 20.1431 39.5951C20.3289 39.8289 20.6496 39.9458 21.1051 39.9458C21.2669 39.9458 21.4407 39.9308 21.6266 39.9008C21.8124 39.8708 21.9832 39.8229 22.139 39.757L22.3278 40.8538C22.172 40.9198 21.9772 40.9767 21.7434 41.0247C21.5097 41.0726 21.2519 41.0966 20.9702 41.0966C20.5387 41.0966 20.1671 41.0336 19.8554 40.9078C19.5437 40.7759 19.286 40.5991 19.0822 40.3773C18.8844 40.1556 18.7375 39.8948 18.6416 39.5951C18.5517 39.2894 18.5068 38.9598 18.5068 38.6062Z" fill="white"/>
<path d="M24.5671 37.95C24.699 37.8062 24.8338 37.6563 24.9717 37.5005C25.1155 37.3447 25.2534 37.1918 25.3853 37.042C25.5171 36.8861 25.64 36.7393 25.7539 36.6014C25.8737 36.4636 25.9756 36.3437 26.0596 36.2418H27.6509C27.3332 36.6074 27.0216 36.9581 26.7159 37.2937C26.4162 37.6234 26.0865 37.965 25.7269 38.3187C25.9067 38.4805 26.0925 38.6753 26.2843 38.9031C26.4761 39.1248 26.6619 39.3556 26.8417 39.5953C27.0216 39.8351 27.1864 40.0748 27.3362 40.3146C27.4861 40.5543 27.6119 40.7731 27.7138 40.9709H26.1764C26.0805 40.8151 25.9696 40.6442 25.8438 40.4584C25.7239 40.2666 25.595 40.0778 25.4572 39.892C25.3193 39.7002 25.1725 39.5174 25.0166 39.3436C24.8668 39.1698 24.7169 39.0229 24.5671 38.9031V40.9709H23.2275V34.2099L24.5671 33.9941V37.95Z" fill="white"/>
<path d="M27.8838 38.6062C27.8838 38.2645 27.9377 37.9438 28.0456 37.6442C28.1595 37.3385 28.3213 37.0747 28.5311 36.853C28.7409 36.6252 28.9956 36.4454 29.2953 36.3135C29.595 36.1817 29.9367 36.1157 30.3203 36.1157C30.572 36.1157 30.8028 36.1397 31.0125 36.1877C31.2223 36.2296 31.4261 36.2926 31.6239 36.3765L31.3452 37.4464C31.2193 37.3984 31.0815 37.3565 30.9316 37.3205C30.7818 37.2845 30.614 37.2665 30.4281 37.2665C30.0326 37.2665 29.7359 37.3894 29.5381 37.6352C29.3463 37.8809 29.2504 38.2046 29.2504 38.6062C29.2504 39.0317 29.3403 39.3614 29.5201 39.5951C29.7059 39.8289 30.0266 39.9458 30.4821 39.9458C30.6439 39.9458 30.8177 39.9308 31.0035 39.9008C31.1894 39.8708 31.3602 39.8229 31.516 39.757L31.7048 40.8538C31.549 40.9198 31.3542 40.9767 31.1204 41.0247C30.8867 41.0726 30.6289 41.0966 30.3472 41.0966C29.9157 41.0966 29.5441 41.0336 29.2324 40.9078C28.9207 40.7759 28.663 40.5991 28.4592 40.3773C28.2614 40.1556 28.1145 39.8948 28.0186 39.5951C27.9287 39.2894 27.8838 38.9598 27.8838 38.6062Z" fill="white"/>
<path d="M32.6045 40.9709V34.2099L33.9441 33.9941V36.2598C34.034 36.2298 34.1479 36.2029 34.2857 36.1789C34.4296 36.1489 34.5675 36.1339 34.6993 36.1339C35.0829 36.1339 35.4006 36.1879 35.6523 36.2958C35.9101 36.3976 36.1138 36.5445 36.2637 36.7363C36.4195 36.9281 36.5274 37.1559 36.5874 37.4196C36.6533 37.6833 36.6863 37.977 36.6863 38.3007V40.9709H35.3466V38.4625C35.3466 38.031 35.2897 37.7253 35.1758 37.5455C35.0679 37.3656 34.8641 37.2757 34.5645 37.2757C34.4446 37.2757 34.3307 37.2877 34.2228 37.3117C34.1209 37.3297 34.028 37.3507 33.9441 37.3746V40.9709H32.6045Z" fill="white"/>
<path d="M39.7058 40.0357C39.8377 40.0357 39.9636 40.0327 40.0834 40.0267C40.2033 40.0207 40.2992 40.0117 40.3711 39.9997V38.9838C40.3172 38.9718 40.2363 38.9598 40.1284 38.9478C40.0205 38.9358 39.9216 38.9298 39.8317 38.9298C39.7058 38.9298 39.586 38.9388 39.4721 38.9568C39.3642 38.9688 39.2683 38.9958 39.1844 39.0377C39.1005 39.0797 39.0345 39.1366 38.9866 39.2085C38.9386 39.2805 38.9146 39.3704 38.9146 39.4783C38.9146 39.688 38.9836 39.8349 39.1214 39.9188C39.2653 39.9967 39.4601 40.0357 39.7058 40.0357ZM39.5979 36.1157C39.9935 36.1157 40.3232 36.1607 40.5869 36.2506C40.8506 36.3405 41.0604 36.4694 41.2163 36.6372C41.3781 36.805 41.492 37.0088 41.5579 37.2486C41.6238 37.4883 41.6568 37.755 41.6568 38.0487V40.8358C41.465 40.8778 41.1983 40.9258 40.8566 40.9797C40.515 41.0396 40.1014 41.0696 39.6159 41.0696C39.3102 41.0696 39.0315 41.0426 38.7798 40.9887C38.534 40.9347 38.3213 40.8478 38.1415 40.728C37.9616 40.6021 37.8238 40.4403 37.7279 40.2425C37.632 40.0447 37.584 39.8019 37.584 39.5142C37.584 39.2385 37.638 39.0047 37.7459 38.8129C37.8597 38.6211 38.0096 38.4683 38.1954 38.3544C38.3812 38.2405 38.594 38.1596 38.8337 38.1117C39.0735 38.0577 39.3222 38.0308 39.58 38.0308C39.7538 38.0308 39.9066 38.0397 40.0385 38.0577C40.1763 38.0697 40.2872 38.0877 40.3711 38.1117V37.9858C40.3711 37.758 40.3022 37.5752 40.1644 37.4374C40.0265 37.2995 39.7867 37.2306 39.4451 37.2306C39.2173 37.2306 38.9926 37.2486 38.7708 37.2845C38.549 37.3145 38.3572 37.3595 38.1954 37.4194L38.0246 36.3405C38.1025 36.3165 38.1984 36.2926 38.3123 36.2686C38.4321 36.2386 38.561 36.2146 38.6989 36.1967C38.8367 36.1727 38.9806 36.1547 39.1304 36.1427C39.2863 36.1247 39.4421 36.1157 39.5979 36.1157Z" fill="white"/>
<path d="M44.2079 40.9709H42.8683V36.2418H44.2079V40.9709ZM44.3337 34.8752C44.3337 35.121 44.2528 35.3158 44.091 35.4596C43.9351 35.5975 43.7493 35.6664 43.5336 35.6664C43.3178 35.6664 43.129 35.5975 42.9672 35.4596C42.8113 35.3158 42.7334 35.121 42.7334 34.8752C42.7334 34.6295 42.8113 34.4377 42.9672 34.2998C43.129 34.156 43.3178 34.084 43.5336 34.084C43.7493 34.084 43.9351 34.156 44.091 34.2998C44.2528 34.4377 44.3337 34.6295 44.3337 34.8752Z" fill="white"/>
</g>
<defs>
<clipPath id="clip0_305_2">
<rect width="55" height="55" fill="white"/>
</clipPath>
</defs>
</svg>
