<svg width="234" height="54" viewBox="0 0 234 54" fill="none" xmlns="http://www.w3.org/2000/svg">
<g clip-path="url(#clip0_257_9)">
<path d="M121 40.999C128.732 40.999 135 34.731 135 26.999C135 19.267 128.732 12.999 121 12.999C113.268 12.999 107 19.267 107 26.999C107 34.731 113.268 40.999 121 40.999Z" fill="#1E959B"/>
<path d="M105.372 10.602C107.144 8.85926 107.167 6.01011 105.425 4.23822C103.682 2.46633 100.833 2.44267 99.0608 4.18537C97.2889 5.92808 97.2653 8.77722 99.008 10.5491C100.751 12.321 103.6 12.3447 105.372 10.602Z" fill="#1E959B"/>
<path d="M143.938 49.8144C145.71 48.0717 145.734 45.2225 143.991 43.4506C142.248 41.6787 139.399 41.6551 137.627 43.3978C135.855 45.1405 135.832 47.9896 137.574 49.7615C139.317 51.5334 142.166 51.5571 143.938 49.8144Z" fill="#1E959B"/>
<path fill-rule="evenodd" clip-rule="evenodd" d="M6.99805 33C10.3118 33 12.998 30.3137 12.998 27C12.998 26.9767 12.9979 26.9535 12.9977 26.9303C21.4836 25.0869 38.7175 23.6227 61.9055 27.9915C89.5762 33.2048 111.556 30.1705 119.137 27.9805L118.859 27.0197C111.44 29.163 89.6199 32.1954 62.0906 27.0087C38.9233 22.6439 21.603 24.0588 12.9026 25.928C12.3972 23.1258 9.94585 21 6.99805 21C3.68434 21 0.998047 23.6863 0.998047 27C0.998047 30.3137 3.68434 33 6.99805 33Z" fill="#1E959B" fill-opacity="0.25"/>
<path fill-rule="evenodd" clip-rule="evenodd" d="M227.999 33C231.312 33 233.999 30.3137 233.999 27C233.999 23.6863 231.312 21 227.999 21C224.685 21 221.999 23.6863 221.999 27C221.999 27.5652 222.077 28.1121 222.223 28.6305C212.055 30.3825 193.457 31.5937 171.091 27.3798C143.429 22.1682 124.103 25.1964 117.833 27.3995L118.164 28.3429C124.228 26.2126 143.368 23.1742 170.906 28.3625C193.513 32.6217 212.321 31.376 222.582 29.5831C223.547 31.6039 225.61 33 227.999 33Z" fill="#1E959B" fill-opacity="0.25"/>
<path d="M121 53.5C135.636 53.5 147.5 41.6355 147.5 27C147.5 12.3645 135.636 0.5 121 0.5C106.364 0.5 94.5 12.3645 94.5 27C94.5 41.6355 106.364 53.5 121 53.5Z" stroke="#1E959B" stroke-opacity="0.15"/>
</g>
<defs>
<clipPath id="clip0_257_9">
<rect width="234" height="54" fill="white"/>
</clipPath>
</defs>
</svg>
