<svg width="90" height="84" viewBox="0 0 90 84" fill="none" xmlns="http://www.w3.org/2000/svg">
<g filter="url(#filter0_d_120_1449)">
<path d="M10.6636 25C10.6636 13.9543 19.6179 5 30.6636 5H59.7115C70.7572 5 79.7115 13.9543 79.7115 25V49C79.7115 60.0457 70.7572 69 59.7115 69H30.6636C19.6179 69 10.6636 60.0457 10.6636 49V25Z" fill="url(#paint0_linear_120_1449)"/>
</g>
<path fill-rule="evenodd" clip-rule="evenodd" d="M60.2076 24.54C60.2076 25.2411 59.9844 25.9515 59.42 26.3673C58.6795 26.9129 57.7643 27.2354 56.7736 27.2354H54.623C52.9662 27.2354 51.623 25.8923 51.623 24.2354V21.7452C51.623 21.2309 51.7101 20.7369 51.8704 20.2772C52.1741 19.4059 53.1074 19 54.0301 19H57.2076C58.8644 19 60.2076 20.3431 60.2076 22V24.54ZM56.7736 27.9217C58.2265 27.9217 60.2076 28.9169 60.2076 30.3697V51C60.2076 52.6569 58.8644 54 57.2076 54H33.6772C32.0204 54 30.6772 52.6569 30.6772 51V22C30.6772 20.3431 32.0204 19 33.6772 19H48.8334C50.0901 19 50.9363 20.4885 50.9363 21.7452V24.9217C50.9363 26.5785 52.2794 27.9217 53.9363 27.9217H56.7736ZM32.7361 23.804C32.7361 23.4249 33.0436 23.1177 33.4229 23.1177H47.1579C47.5372 23.1177 47.8447 23.4249 47.8447 23.804C47.8447 24.183 47.5372 24.4902 47.1579 24.4902H33.4229C33.0436 24.4902 32.7361 24.183 32.7361 23.804ZM32.7361 27.2353C32.7361 26.8563 33.0436 26.5491 33.4229 26.5491H47.1579C47.5372 26.5491 47.8447 26.8563 47.8447 27.2353C47.8447 27.6144 47.5372 27.9216 47.1579 27.9216H33.4229C33.0436 27.9216 32.7361 27.6144 32.7361 27.2353ZM33.4229 29.9804C33.0436 29.9804 32.7361 30.2877 32.7361 30.6667C32.7361 31.0457 33.0436 31.353 33.4229 31.353H57.4592C57.8385 31.353 58.1459 31.0457 58.1459 30.6667C58.1459 30.2877 57.8385 29.9804 57.4592 29.9804H33.4229ZM32.7361 34.0981C32.7361 33.7191 33.0436 33.4118 33.4229 33.4118H57.4592C57.8385 33.4118 58.1459 33.7191 58.1459 34.0981C58.1459 34.4771 57.8385 34.7844 57.4592 34.7844H33.4229C33.0436 34.7844 32.7361 34.4771 32.7361 34.0981ZM33.4229 36.8432C33.0436 36.8432 32.7361 37.1504 32.7361 37.5295C32.7361 37.9085 33.0436 38.2157 33.4229 38.2157H57.4592C57.8385 38.2157 58.1459 37.9085 58.1459 37.5295C58.1459 37.1504 57.8385 36.8432 57.4592 36.8432H33.4229ZM32.7361 40.9608C32.7361 40.5818 33.0436 40.2746 33.4229 40.2746H57.4592C57.8385 40.2746 58.1459 40.5818 58.1459 40.9608C58.1459 41.3398 57.8385 41.6471 57.4592 41.6471H33.4229C33.0436 41.6471 32.7361 41.3398 32.7361 40.9608ZM33.4229 43.7059C33.0436 43.7059 32.7361 44.0132 32.7361 44.3922C32.7361 44.7712 33.0436 45.0785 33.4229 45.0785H57.4592C57.8385 45.0785 58.1459 44.7712 58.1459 44.3922C58.1459 44.0132 57.8385 43.7059 57.4592 43.7059H33.4229ZM32.7361 47.8236C32.7361 47.4446 33.0436 47.1373 33.4229 47.1373H57.4592C57.8385 47.1373 58.1459 47.4446 58.1459 47.8236C58.1459 48.2026 57.8385 48.5098 57.4592 48.5098H33.4229C33.0436 48.5098 32.7361 48.2026 32.7361 47.8236ZM33.4229 50.5687C33.0436 50.5687 32.7361 50.8759 32.7361 51.2549C32.7361 51.634 33.0436 51.9412 33.4229 51.9412H57.4592C57.8385 51.9412 58.1459 51.634 58.1459 51.2549C58.1459 50.8759 57.8385 50.5687 57.4592 50.5687H33.4229Z" fill="#F8FAFD"/>
<defs>
<filter id="filter0_d_120_1449" x="0.663574" y="0" width="89.0479" height="84" filterUnits="userSpaceOnUse" color-interpolation-filters="sRGB">
<feFlood flood-opacity="0" result="BackgroundImageFix"/>
<feColorMatrix in="SourceAlpha" type="matrix" values="0 0 0 0 0 0 0 0 0 0 0 0 0 0 0 0 0 0 127 0" result="hardAlpha"/>
<feOffset dy="5"/>
<feGaussianBlur stdDeviation="5"/>
<feColorMatrix type="matrix" values="0 0 0 0 0.117647 0 0 0 0 0.584314 0 0 0 0 0.607843 0 0 0 0.5 0"/>
<feBlend mode="normal" in2="BackgroundImageFix" result="effect1_dropShadow_120_1449"/>
<feBlend mode="normal" in="SourceGraphic" in2="effect1_dropShadow_120_1449" result="shape"/>
</filter>
<linearGradient id="paint0_linear_120_1449" x1="79.7115" y1="37" x2="10.6636" y2="37" gradientUnits="userSpaceOnUse">
<stop stop-color="#1E959B"/>
<stop offset="1" stop-color="#AFDEDE"/>
</linearGradient>
</defs>
</svg>
