<svg width="78" height="62" viewBox="0 0 78 62" fill="none" xmlns="http://www.w3.org/2000/svg">
<path d="M72.0176 47.2337L68.101 45.6624V44.6621C68.8699 44.2348 69.5602 43.6788 70.1411 43.0225C72.6185 43.3149 74.9888 42.326 76.5233 40.3365C78.1101 38.2791 78.4403 35.6277 77.4066 33.2439L75.6479 29.1887C75.5157 28.884 75.4247 28.5626 75.3773 28.2338C74.9984 25.5997 73.6819 23.1892 71.6706 21.4466C69.6592 19.7038 67.0859 18.7442 64.4247 18.7442C61.7634 18.7442 59.1901 19.7038 57.1788 21.4466C55.1676 23.1892 53.851 25.5995 53.472 28.2338C53.4246 28.5627 53.3337 28.8841 53.2014 29.1887L51.4429 33.2439C50.4092 35.6275 50.7393 38.279 52.3262 40.3365C53.6836 42.0965 55.6949 43.0773 57.8556 43.0771C58.1343 43.0771 58.4158 43.0606 58.6987 43.0274C59.2259 43.6251 59.8441 44.14 60.5326 44.5498V45.6622L56.6162 47.2337C56.3609 47.3361 56.1117 47.452 55.8687 47.5802C55.111 46.1864 54.0291 44.9676 52.6829 44.0417L47.5817 40.5335C47.6112 39.8892 47.3535 39.2403 46.8287 38.795L44.7559 37.0361C44.5594 36.8693 44.3386 36.7433 44.1053 36.6576V34.2896C46.2963 32.7004 47.8499 30.2859 48.3053 27.5052H48.4301C50.6603 27.5052 52.4747 25.6908 52.4747 23.4608C52.4747 22.5086 52.1431 21.6328 51.5905 20.9411L52.4266 14.9975C53.0292 10.7127 50.0378 6.70918 45.7579 6.07256L45.5915 6.04792C44.223 3.81431 42.1034 2.20282 39.5602 1.48168L39.2541 1.39481C35.8823 0.438796 32.2757 1.00944 29.359 2.96077C28.822 3.31993 28.6779 4.04638 29.0371 4.58318C29.3962 5.11998 30.1225 5.26424 30.6596 4.90492C33.0054 3.33568 35.9052 2.87671 38.6159 3.64541L38.9221 3.73228C41.0501 4.33568 42.797 5.74194 43.8409 7.69201C44.5591 9.03371 44.8762 10.5092 44.7846 11.9852L43.9917 11.3037C43.267 10.6808 42.2014 10.6642 41.4581 11.2647L40.418 12.1048H34.4809C30.6283 12.1048 27.4939 15.2392 27.4939 19.0918V19.4167C27.1837 19.4177 26.8821 19.4549 26.592 19.5224C25.2696 15.7997 25.6425 11.6054 27.63 8.17454C27.9538 7.61544 27.7632 6.89991 27.2043 6.57599C26.6453 6.25238 25.9298 6.4428 25.6059 7.00175C23.2023 11.1511 22.8125 16.2526 24.5405 20.7173C23.8732 21.4388 23.4644 22.4028 23.4644 23.4608C23.4644 25.6908 25.2788 27.5052 27.509 27.5052H27.6338C28.0892 30.2859 29.6428 32.7004 31.8338 34.2896V36.6576C31.6005 36.7431 31.3797 36.8693 31.1833 37.036L29.1104 38.795C28.5856 39.2403 28.3279 39.8894 28.3574 40.5335L23.2562 44.0417C22.2196 44.7546 21.3394 45.641 20.6432 46.6474C20.192 46.3982 19.7218 46.1852 19.2349 46.0127L15.7714 44.7859V43.8641C17.5356 42.7741 18.8038 40.9572 19.1571 38.8343H19.6805C21.7327 38.8343 23.4022 37.1648 23.4022 35.1127C23.4022 34.1913 23.065 33.3479 22.5084 32.6973L22.7173 30.2252C23.0075 26.6654 21.4542 23.2886 18.562 21.193C15.6697 19.0971 11.9772 18.6724 8.68462 20.0567L6.35323 21.0369C2.74331 21.8338 0.330504 25.2929 0.84594 28.9673L1.36746 32.6853C0.804767 33.3375 0.463379 34.1857 0.463379 35.1127C0.463379 37.1648 2.13289 38.8343 4.18512 38.8343H4.70851C5.03883 40.8195 6.16967 42.5364 7.75761 43.6423V44.7859L4.29413 46.0125C3.80911 46.1844 3.33126 46.3996 2.874 46.6526C2.30865 46.9651 2.10373 47.6767 2.41626 48.2421C2.62961 48.6281 3.02902 48.8459 3.4409 48.8459C3.63226 48.8459 3.82642 48.7988 4.00577 48.6996C4.3509 48.5088 4.71069 48.3466 5.07485 48.2176L8.06766 47.1575C8.6737 48.602 10.1023 49.6192 11.7643 49.6192C13.4263 49.6192 14.8549 48.602 15.4609 47.1575L18.4537 48.2177C18.8302 48.3509 19.1936 48.5167 19.5418 48.7113C19.0772 49.8891 18.8282 51.1583 18.8282 52.4607V59.3998C18.8282 60.0459 19.3519 60.5695 19.9978 60.5695C20.6438 60.5695 21.1675 60.0459 21.1675 59.3998V52.4607C21.1675 49.8662 22.4439 47.4395 24.5816 45.9693L29.453 42.6191L31.4497 45.2887C31.8789 45.8626 32.5519 46.1859 33.246 46.1859C33.4622 46.1859 33.6805 46.1546 33.894 46.0896L36.7996 45.2053V59.8895C36.7996 60.5356 37.3233 61.0592 37.9693 61.0592C38.6153 61.0592 39.139 60.5356 39.139 59.8895V45.2053L42.0449 46.0897C42.2584 46.1546 42.4765 46.1859 42.6926 46.1859C43.3866 46.1859 44.0597 45.8625 44.4889 45.2887L46.4855 42.6191L51.3569 45.9693C53.4948 47.4395 54.771 49.8662 54.771 52.4607V59.3998C54.771 60.0459 55.2947 60.5695 55.9406 60.5695C56.5866 60.5695 57.1103 60.0459 57.1103 59.3998V52.4607C57.1103 51.5395 56.9854 50.6348 56.7483 49.767C56.9854 49.6287 57.232 49.5073 57.4869 49.405L60.8832 48.0423C61.4849 49.3374 62.7973 50.238 64.3167 50.238C65.8362 50.238 67.1486 49.3375 67.7503 48.0424L71.1467 49.405C73.2944 50.2665 74.6819 52.3185 74.6819 54.6324V56.6123C74.6819 57.2584 75.2056 57.7819 75.8516 57.7819C76.4976 57.7819 77.0213 57.2584 77.0213 56.6123V54.6324C77.0211 51.3573 75.057 48.4532 72.0176 47.2337ZM25.8033 23.4606C25.8033 22.5255 26.5602 21.7644 27.4934 21.7562V25.1647C26.5603 25.1566 25.8033 24.3957 25.8033 23.4606ZM19.6802 36.4948H19.2578V33.73H19.6802C20.4425 33.73 21.0626 34.3503 21.0626 35.1124C21.0626 35.8746 20.4425 36.4948 19.6802 36.4948ZM2.80241 35.1126C2.80241 34.3503 3.42249 33.7302 4.18481 33.7302H4.60714V36.495H4.18481C3.42265 36.4948 2.80241 35.8747 2.80241 35.1126ZM6.02775 27.7853C5.25186 28.8567 4.78275 30.0905 4.64847 31.3907H4.18481C3.97021 31.3907 3.7603 31.41 3.55553 31.4449L3.16236 28.6419C2.81271 26.1498 4.47083 23.8051 6.93713 23.304C7.01261 23.2887 7.08653 23.266 7.15765 23.236L9.59119 22.2128C12.1242 21.1478 14.9645 21.4748 17.1892 23.0868C19.4139 24.6991 20.6089 27.2964 20.3859 30.0312L20.267 31.4371C20.0758 31.4067 19.8799 31.3905 19.6802 31.3905H19.2475C19.1468 30.3988 18.307 29.6221 17.289 29.6221H14.4007C12.3423 29.6221 10.3053 28.937 8.66528 27.6933L8.33434 27.4423C7.98687 27.1788 7.5399 27.0643 7.10899 27.1285C6.67762 27.1928 6.28351 27.4322 6.02775 27.7853ZM7.92246 29.1574C7.92215 29.1578 7.92199 29.1582 7.92184 29.1585C7.92199 29.1582 7.9223 29.1578 7.92246 29.1574ZM6.94664 32.1692C6.94664 31.3233 7.15048 30.5058 7.54083 29.7697C9.53286 31.1856 11.9547 31.9618 14.4009 31.9618H16.9185V37.6283C16.9185 40.3777 14.6818 42.6144 11.9326 42.6144C9.18337 42.6144 6.94664 40.3777 6.94664 37.6283V32.1692ZM11.7641 47.2798C10.8446 47.2798 10.0966 46.5317 10.0966 45.6123V44.7206C10.6835 44.8726 11.2988 44.9537 11.9326 44.9537C12.4463 44.9537 12.9475 44.9001 13.4318 44.7989V45.6123C13.4318 46.5317 12.6837 47.2798 11.7641 47.2798ZM48.4448 25.1647V21.7562C49.378 21.7643 50.1349 22.5255 50.1349 23.4606C50.1349 24.3957 49.378 25.1566 48.4448 25.1647ZM50.1096 14.6712L49.4246 19.5402C49.1108 19.4605 48.7826 19.4176 48.4446 19.4163V19.3217C48.4446 17.4359 47.8613 15.6219 46.805 14.1062C47.2656 12.3323 47.2493 10.5061 46.7726 8.7703C49.0319 9.73457 50.4667 12.1327 50.1096 14.6712ZM29.8329 25.8067V19.0915C29.8329 16.5287 31.9179 14.4438 34.4806 14.4438H40.8311C41.0986 14.4438 41.3579 14.3521 41.566 14.1842L42.694 13.2729L43.7419 14.1736C45.2439 15.4646 46.1053 17.3412 46.1053 19.3217V25.8065C46.1053 30.2929 42.4554 33.9427 37.969 33.9427C33.4826 33.9427 29.8329 30.2929 29.8329 25.8067ZM37.9692 36.2822C39.308 36.2822 40.5875 36.0271 41.7656 35.5673V37.0661L37.9692 38.9276L34.1727 37.0661V35.5673C35.3507 36.0269 36.6303 36.2822 37.9692 36.2822ZM33.2805 43.8307L30.7609 40.4619L32.6007 38.9006L36.7993 40.9592V42.7597L33.2805 43.8307ZM42.6577 43.8307L39.1388 42.7599V40.9594L43.3375 38.9008L45.1773 40.462L42.6577 43.8307ZM54.1783 38.9078C53.1194 37.5347 52.899 35.7656 53.589 34.1748L55.3475 30.1196C55.5624 29.6243 55.7104 29.102 55.7873 28.5671C56.4013 24.3009 60.1145 21.0837 64.4247 21.0837C68.7348 21.0837 72.448 24.3009 73.0618 28.5671C73.1387 29.1019 73.2867 29.6242 73.5016 30.1196L75.2602 34.1748C75.95 35.7654 75.7298 37.5347 74.6708 38.9078C73.8867 39.9243 72.7755 40.5501 71.5559 40.7003C71.8078 40.0459 71.972 39.3483 72.0324 38.6213C72.0857 37.9775 71.6069 37.4123 70.9633 37.359C70.3201 37.3067 69.7545 37.7844 69.701 38.428C69.4756 41.149 67.158 43.2805 64.4247 43.2805C61.5041 43.2805 59.1282 40.9046 59.1282 37.984V32.3729C59.1282 31.1287 59.4944 29.905 60.1689 28.8664C61.6825 30.0217 63.5482 30.6825 65.454 30.7328L69.7211 30.8454V33.5398C69.7211 34.1859 70.2448 34.7094 70.8908 34.7094C71.5367 34.7094 72.0604 34.1859 72.0604 33.5398V30.5287C72.0604 29.4286 71.1989 28.5442 70.0993 28.5153L65.5156 28.3946C64.0313 28.3553 62.5799 27.8177 61.4284 26.8812L61.1262 26.6353C60.7697 26.3453 60.3219 26.2125 59.8648 26.2616C59.408 26.3104 58.9983 26.535 58.7115 26.8935C57.4715 28.4428 56.7884 30.3888 56.7884 32.3734V37.9845C56.7884 38.9401 56.9664 39.8544 57.2884 40.6981C56.071 40.5469 54.9614 39.923 54.1783 38.9078ZM64.3166 47.8985C63.5198 47.8985 62.8715 47.2503 62.8715 46.4534V45.4607C63.3732 45.5648 63.8925 45.62 64.4245 45.62C64.8796 45.62 65.3261 45.5772 65.7615 45.4986V46.4536C65.7617 47.2503 65.1134 47.8985 64.3166 47.8985Z" fill="#1E959B"/>
</svg>
